inDegrees=no
num_controls=7
num_derivatives=13
num_iterations=75
num_multipliers=7
num_parameters=0
num_slacks=7
num_states=26
objective=0.334230
objective_accelerations=0.035458
objective_balance=0.001197
objective_effort=0.026922
objective_height=0.268981
objective_ligament=0.001672
solver_duration=781.542382
status=Solve_Succeeded
success=true
DataType=double
version=3
OpenSimVersion=4.5
endheader
time	/jointset/ground_pelvis/pelvis_tilt/value	/jointset/ground_pelvis/pelvis_tx/value	/jointset/ground_pelvis/pelvis_ty/value	/jointset/hip_r/hip_flexion_r/value	/jointset/hip_r/hip_adduction_r/value	/jointset/hip_r/hip_rotation_r/value	/jointset/back/lumbar_extension/value	/jointset/patellofemoral_r/patellar_flexion_r/value	/jointset/knee_r/knee_flexion_r/value	/jointset/knee_r/knee_adduction_r/value	/jointset/knee_r/knee_rotation_r/value	/jointset/ankle_r/ankle_angle_r/value	/jointset/subtalar_r/subtalar_angle_r/value	/jointset/ground_pelvis/pelvis_tilt/speed	/jointset/ground_pelvis/pelvis_tx/speed	/jointset/ground_pelvis/pelvis_ty/speed	/jointset/hip_r/hip_flexion_r/speed	/jointset/hip_r/hip_adduction_r/speed	/jointset/hip_r/hip_rotation_r/speed	/jointset/back/lumbar_extension/speed	/jointset/patellofemoral_r/patellar_flexion_r/speed	/jointset/knee_r/knee_flexion_r/speed	/jointset/knee_r/knee_adduction_r/speed	/jointset/knee_r/knee_rotation_r/speed	/jointset/ankle_r/ankle_angle_r/speed	/jointset/subtalar_r/subtalar_angle_r/speed	/forceset/tau_hip_flexion_r	/forceset/tau_hip_adduction_r	/forceset/tau_hip_rotation_r	/forceset/tau_knee_flexion_r	/forceset/tau_ankle_angle_r	/forceset/tau_subtalar_angle_r	/forceset/tau_lumbar_extension	lambda_cid13_p0	lambda_cid14_p0	lambda_cid14_p1	lambda_cid14_p2	lambda_cid14_p3	lambda_cid14_p4	lambda_cid14_p5	/jointset/ground_pelvis/pelvis_tilt/accel	/jointset/ground_pelvis/pelvis_tx/accel	/jointset/ground_pelvis/pelvis_ty/accel	/jointset/hip_r/hip_flexion_r/accel	/jointset/hip_r/hip_adduction_r/accel	/jointset/hip_r/hip_rotation_r/accel	/jointset/back/lumbar_extension/accel	/jointset/patellofemoral_r/patellar_flexion_r/accel	/jointset/knee_r/knee_flexion_r/accel	/jointset/knee_r/knee_adduction_r/accel	/jointset/knee_r/knee_rotation_r/accel	/jointset/ankle_r/ankle_angle_r/accel	/jointset/subtalar_r/subtalar_angle_r/accel	gamma_cid13_p0	gamma_cid14_p0	gamma_cid14_p1	gamma_cid14_p2	gamma_cid14_p3	gamma_cid14_p4	gamma_cid14_p5
0	-0.01590015556177711	0.1364587746349568	0.9316586258930164	0.1934211968871041	-0.2463394450007956	-0.2301522713028023	-0.2903787966825928	0.2311786273363401	0.2311786273363406	0.1727771302775226	0.1731125564239963	0.089344008118978	0.04123886950308017	0	0	0	0	0	0	0	0	0	0	0	0	0	0.1004050717931438	-0.055188163121972	0.01028293107152428	-0.2397213723355913	0.1107537309494111	-0.1387521395648576	-0.02390921851277764	-30.06500513538957	-12.7903462211322	-56.71127763652432	2.851661786204239	5.197239606120521	-611.1821903054079	17.67279293230717	-1.92878102880736	-1.921478066271477	-0.8105654311038227	10.10402877697158	0.1285781295104282	2.578373874559075	-6.355423674506731	10.06697638098252	10.06697638098252	-2.749711834746562	0.2530341414779066	2.650714897673886	0.840769725886884	7.48006611888294e-08	5.469578106028584e-08	-5.094475044096902e-07	2.814507480892226e-07	1.301727717726377e-08	2.118352703517841e-07	-3.74865512524817e-07
0.01	-0.01599154810202632	0.1363652802617636	0.9316192010739386	0.19391306562368	-0.2463313489481283	-0.2300201353710205	-0.2906975474805329	0.2316723131700179	0.2316723131700247	0.1726389229474765	0.1731183324465299	0.08947617744058441	0.04128281662164195	-0.01829543463159884	-0.01846317659411353	-0.007870954948257868	0.09783546676518014	0.001570933120008029	0.02631893821397352	-0.06329546212965806	0.09827521295482067	0.09827521295481803	-0.02741194419518513	0.001142451621122702	0.02647626393904735	0.008744326781247825	0.1020752925019135	-0.07606395928295419	0.009648179409131711	-0.2484612652738692	0.1218850040344903	-0.1254678123333695	-0.02379219281556866	-30.0692949521557	-8.588644371282927	-50.09048618071479	1.663943834904118	0.02602587594861044	-612.7210029891764	32.35565945479897	-1.782464733271457	-1.773380145936165	-0.7732168295324808	9.542565631461571	0.1640801808868308	2.642477839520277	-6.248402863434348	9.638485725412796	9.638485725412441	-2.702563155723675	0.04299635920370418	2.652455386418958	0.8844521273905545	1.013024203471869e-07	4.649842311496828e-08	-6.829626655484636e-07	3.420536463760622e-07	4.286586487090104e-08	7.373309097020088e-08	-4.912362316993956e-07
0.02	-0.01626640299918122	0.136094225584638	0.9315014954448088	0.1953671410289415	-0.2463089977087383	-0.2296280452481551	-0.2916356119760167	0.2331348895277853	0.2331348895277866	0.1722334706866919	0.1731351621226198	0.08987438405046355	0.04141284460264542	-0.03669247138059854	-0.03551206078644914	-0.01565616201040308	0.1924413337371773	0.002851037345659343	0.05199083821610034	-0.1238627395088732	0.193778104816877	0.1937781048168739	-0.05344898614313267	0.002210730713213449	0.05320745765404443	0.01721617248836676	0.1037455132106876	-0.09693975544395284	0.009013427746703431	-0.2572011582121571	0.133016277119557	-0.1121834851019039	-0.02367516711833925	-30.08175212378133	-4.307877271530622	-43.47979778648326	0.5051935097149365	-5.080759024058732	-612.9632357717317	46.7418381946334	-1.949101452287507	-1.638619585915924	-0.7934158538812901	9.458108818334996	0.07041235063907851	2.448966232189739	-5.809786724418129	9.512512162429651	9.512512162430099	-2.474731385299033	0.238199635671515	2.70170085286379	0.7862735110610882	1.278041795055444e-07	3.830106516965072e-08	-8.56477826687237e-07	4.026565446629018e-07	7.271445256453832e-08	-6.436908841138237e-08	-6.076069508739743e-07
0.03	-0.01672499633950483	0.1356581064607417	0.9313061673975658	0.1977524151916976	-0.2462752203840923	-0.2289841355785919	-0.2931658364639185	0.2355388765051856	0.2355388765051904	0.1715743714813698	0.1731637093972218	0.09053913384394949	0.04162581983152919	-0.05492857120079962	-0.05163988006685395	-0.02340758379768547	0.2841575437586941	0.003884791494807519	0.07666828527291154	-0.1817844897424192	0.2865535549154822	0.2865535549154233	-0.0781823374697839	0.003462352582336161	0.07958682947440811	0.02531754336176023	0.09774344322919319	-0.09914868474284096	0.01002130119228183	-0.2507257564518156	0.1232041308550108	-0.1058574303064935	-0.01878701215376391	-30.10184741014423	-7.153287460789924	-41.10547057546792	-0.01627154386253108	-3.781894972596666	-613.328141988755	50.62304583409685	-1.746211949409392	-1.589065846796653	-0.7657392268803318	8.959990067655687	0.1168653845063623	2.458802185457427	-5.723718923463402	9.090175403551111	9.090175403542956	-2.444455457944394	0.06327273905014437	2.582724101197297	0.8127819207791904	1.455344303138018e-07	3.993328525564816e-08	-9.414941156727604e-07	4.768117997680293e-07	8.449556739547763e-08	-1.327297596983195e-07	-6.945175482026425e-07
0.04	-0.01736302021853682	0.1350628685945024	0.931033378355304	0.2010411740493883	-0.2462317038304695	-0.2280971177898517	-0.2952633484042833	0.2388566407775638	0.2388566407775669	0.1706735750724278	0.1732036987458319	0.09146301110655594	0.0419179513782069	-0.0725785791219095	-0.06733580925504201	-0.03114836101417359	0.3731382727240397	0.004798883142111666	0.1006124620509482	-0.2373202300015847	0.3765335638130912	0.3765335638129951	-0.1017884268602794	0.004499145512155516	0.1050329514777554	0.03304743604718062	0.09174137324770414	-0.1013576140417438	0.01102917463790281	-0.2442503546914896	0.1133919845904538	-0.09953137551110396	-0.01389885718917073	-30.12847006205478	-9.926150255680936	-38.73795220882931	-0.5143621166008646	-2.435038081836333	-612.5184562172433	54.23773261239131	-1.831883072469237	-1.552241567472604	-0.7912869397224344	8.911012607100751	0.0464798502702602	2.302312176434842	-5.332584729542007	8.953423922230391	8.953423922234574	-2.249278998067868	0.195233847810839	2.515050889460483	0.7119778734664481	1.63083825279789e-07	4.176817705363149e-08	-1.024685685644815e-06	5.512464849106472e-07	9.590415701275308e-08	-1.996524617461918e-07	-7.808207203386116e-07
0.05	-0.01817536044212069	0.1343130217297916	0.9306829443202177	0.2052069636062365	-0.2461796921880726	-0.2269754701138175	-0.2979037749774207	0.2430609315424944	0.2430609315424974	0.1695423449971148	0.1732541123188073	0.09263709283933151	0.04228561509783582	-0.0898169502346749	-0.08254055019092653	-0.03895712992026163	0.4595775246445941	0.005583234737322366	0.1235867631351282	-0.2903682758703049	0.4638786249472239	0.4638786249471512	-0.1242586948912721	0.005543620271353122	0.1296578573766245	0.04043317207941756	0.08634250943005166	-0.09436079737543118	0.01176491675999768	-0.2401164109640914	0.1090362420251978	-0.1010107219158652	-0.00943401055809465	-30.16046453039813	-11.3351652275732	-39.70831344442702	-0.2669419002362824	-2.050332779991431	-611.9171332134943	50.81036418054538	-1.65892250693727	-1.490619059267862	-0.7785149249114166	8.44407394122522	0.09134176309770521	2.275560855156891	-5.231393202205012	8.558119816592015	8.55811981659285	-2.216173500799914	0.05317507981040617	2.417401992678312	0.7439552710859482	1.597711016309165e-07	3.796818161350966e-08	-9.665254356824701e-07	5.625868081477246e-07	9.503523026603818e-08	-2.491041348527671e-07	-7.67147061584917e-07
0.06	-0.01915790605208477	0.1334139217151976	0.9302538539842985	0.2102238841736312	-0.2461204512399384	-0.2256279650707922	-0.3010627777465782	0.2481252874402811	0.2481252874402866	0.1681923576824452	0.1733137947973513	0.09405366194161197	0.0427255529383837	-0.1066196563977195	-0.09718643923170332	-0.04687962118076519	0.5433644748328441	0.006244744290585898	0.145783935449202	-0.3410354692057413	0.5485465903848477	0.5485465903847758	-0.14553987472966	0.006352926623995266	0.1535304253786201	0.0475022602309988	0.08094364561242957	-0.08736398070912192	0.0125006588821329	-0.2359824672366866	0.1046804994599438	-0.1024900683206303	-0.004969163926992328	-30.19625822217239	-12.67992999825928	-40.68996137400923	0.008021247109234454	-1.619256352080009	-610.260936814688	47.12582776036596	-1.744750082525038	-1.440471188451082	-0.8140314106055375	8.380552260639902	0.02191144188081015	2.146886422413637	-4.856414222885221	8.418004782928607	8.418004782928246	-2.011461359546863	0.148200166499736	2.364583310085769	0.6486482973352777	1.555799729877341e-07	3.393092776336237e-08	-9.024135301439405e-07	5.712705266729898e-07	9.364935546189211e-08	-2.978201856881299e-07	-7.492638520569208e-07
0.07000000000000001	-0.02030683496762259	0.1323713340487032	0.9297447577860822	0.2160658712783123	-0.2460554102566959	-0.2240635067937171	-0.3047160741681638	0.2540232843898392	0.2540232843898514	0.16663587076055	0.1733815698788441	0.09570537992295837	0.04323443449092911	-0.1230931914201829	-0.111218414674043	-0.05496967789336464	0.6245650272764427	0.006752833261279664	0.1669667681076888	-0.389237242637968	0.6305971603821084	0.6305971603819487	-0.1655672967086809	0.007153428203703136	0.1767069157868087	0.05424039128333639	0.07585179885573165	-0.09008435957732484	0.01323138009437036	-0.2336211924124922	0.1006864333567936	-0.09622925213551607	-0.0006847839224013741	-30.23428359771527	-13.54518714892134	-38.10436902937829	-0.4247765582120464	-1.934594434717418	-608.9991155195138	51.06580403623006	-1.587697965164733	-1.36764010015775	-0.8110618707535086	7.919629575005112	0.06364837810122161	2.082955798748588	-4.744073032391427	8.030206171260001	8.030206171247016	-1.969934817418688	0.03878902507384573	2.278261753149425	0.6812735428658566	1.379674399052258e-07	3.163913042456714e-08	-6.879565611130894e-07	6.31668343641749e-07	7.818509640673155e-08	-3.057705822362343e-07	-7.172931956219376e-07
